<?xml version="1.0" standalone="no"?>
<!DOCTYPE svg PUBLIC "-//W3C//DTD SVG 20010904//EN"
 "http://www.w3.org/TR/2001/REC-SVG-20010904/DTD/svg10.dtd">
<svg version="1.0" xmlns="http://www.w3.org/2000/svg"
 width="429.000000pt" height="115.000000pt" viewBox="0 0 429.000000 115.000000"
 preserveAspectRatio="xMidYMid meet">

<g transform="translate(0.000000,115.000000) scale(0.100000,-0.100000)"
fill="#000000" stroke="none">
<path d="M620 780 c-111 -14 -195 -106 -207 -224 -5 -51 15 -116 36 -116 16 0
65 -74 70 -107 3 -19 11 -35 16 -36 19 -4 16 54 -5 90 -11 19 -20 37 -18 38 2
1 14 8 26 14 28 15 52 67 52 114 0 52 32 73 64 41 13 -13 16 -42 16 -165 0
-91 4 -159 11 -172 19 -37 52 -57 94 -57 68 0 105 45 105 127 0 43 3 50 30 65
38 21 38 42 0 101 -16 26 -30 50 -30 52 0 3 23 5 51 5 l50 0 -3 38 c-3 36 -4
37 -46 40 -34 3 -45 8 -56 30 -16 31 -71 84 -103 101 -35 18 -103 27 -153 21z
m139 -49 c41 -22 95 -78 106 -110 5 -17 15 -21 45 -21 21 0 42 -4 45 -10 4 -6
-41 -10 -129 -10 -122 0 -135 2 -141 18 -7 24 -49 44 -72 35 -40 -14 -53 -35
-53 -85 0 -55 -24 -88 -64 -88 -38 0 -56 25 -56 78 1 81 48 155 125 195 44 23
146 22 194 -2z m91 -191 c0 -5 14 -29 31 -54 34 -48 33 -73 -3 -78 -21 -3 -23
-9 -28 -76 -4 -58 -9 -77 -24 -88 -29 -21 -82 -18 -106 6 -18 18 -20 33 -20
160 l0 140 75 0 c42 0 75 -4 75 -10z"/>
<path d="M1141 703 c-34 -128 -43 -186 -31 -193 10 -6 9 -23 -4 -80 -9 -40
-16 -77 -16 -82 0 -5 28 -8 62 -6 l62 3 12 46 c24 97 26 119 10 119 -10 0 -13
6 -10 15 4 8 12 15 20 15 8 0 14 -7 14 -15 0 -8 7 -15 15 -15 19 0 19 1 -4
-93 l-18 -78 65 3 65 3 18 75 c22 91 22 90 6 90 -8 0 -11 13 -9 44 3 35 -1 49
-18 66 -19 19 -30 22 -76 18 -30 -3 -54 -4 -54 -4 0 1 7 25 14 54 l14 52 -64
0 -63 0 -10 -37z"/>
<path d="M2350 728 c0 -7 -5 -30 -11 -51 -9 -35 -12 -38 -39 -32 -48 10 -126
-39 -157 -99 -8 -16 -11 -31 -6 -35 5 -3 9 -34 9 -68 -1 -75 22 -107 76 -106
18 1 70 1 114 2 l81 0 17 68 c9 37 19 76 22 86 4 11 0 17 -10 17 -20 0 -20 -2
4 100 11 47 22 95 25 108 5 21 3 22 -60 22 -45 0 -65 -4 -65 -12z m-45 -198
c-5 -14 -2 -20 10 -20 13 0 15 -6 10 -32 -4 -18 -13 -39 -20 -46 -20 -22 -48
13 -40 49 5 20 3 29 -6 29 -8 0 -6 7 6 20 10 11 24 20 32 20 10 0 12 -6 8 -20z"/>
<path d="M2836 630 c-31 -130 -30 -120 -12 -120 14 0 11 -20 -21 -147 -5 -22
-3 -23 59 -23 l65 0 18 82 c12 59 14 83 6 86 -15 5 -14 32 2 32 7 0 21 -10 31
-22 18 -21 18 -25 2 -92 -9 -39 -16 -74 -16 -78 0 -5 28 -8 63 -8 l64 0 17 82
c13 57 15 83 7 86 -6 2 -11 26 -11 53 0 62 -26 83 -96 77 l-46 -3 6 36 c3 21
9 44 12 53 5 14 -4 16 -59 16 l-65 0 -26 -110z"/>
<path d="M3180 726 c0 -7 -3 -28 -6 -45 l-6 -31 65 0 c62 0 65 1 71 28 4 15 9
35 12 45 5 15 -3 17 -65 17 -54 0 -71 -3 -71 -14z"/>
<path d="M1527 640 c-27 -5 -51 -11 -54 -14 -6 -6 -23 -80 -19 -84 2 -2 27 4
55 14 50 16 81 14 81 -5 0 -5 -22 -12 -48 -16 -40 -5 -93 -24 -70 -25 4 0 -4
-16 -17 -36 -28 -42 -32 -80 -10 -111 20 -28 51 -33 164 -25 l95 7 18 70 c21
84 22 95 6 95 -9 0 -13 16 -13 46 0 39 -5 50 -26 66 -31 23 -94 30 -162 18z
m71 -197 c-3 -32 -35 -44 -45 -17 -4 11 1 22 12 30 28 21 37 17 33 -13z"/>
<path d="M1988 644 c-4 -4 -47 -7 -95 -8 l-88 -1 -13 -59 c-10 -45 -10 -61 -1
-67 9 -5 8 -25 -5 -79 -23 -104 -25 -100 44 -100 57 0 60 1 66 28 3 15 13 54
21 86 11 46 12 61 2 66 -15 10 -3 43 14 37 6 -2 11 -12 11 -21 -1 -9 4 -16 12
-16 17 0 17 1 0 -69 -8 -31 -17 -68 -20 -83 l-6 -28 63 0 64 0 20 88 c15 65
17 88 8 90 -8 2 -11 17 -8 45 4 32 0 48 -13 64 -20 23 -65 39 -76 27z"/>
<path d="M3688 640 c-14 -4 -40 -16 -57 -26 -39 -23 -89 -93 -74 -102 6 -4 11
-29 10 -57 -1 -90 41 -127 148 -128 80 -1 121 16 134 55 16 47 14 51 -21 44
-102 -21 -138 -16 -138 20 0 10 23 14 93 16 87 3 92 4 95 26 2 15 -2 22 -12
22 -12 0 -16 10 -16 36 0 46 -14 70 -50 89 -31 16 -69 18 -112 5z m55 -98
c-13 -2 -33 -2 -45 1 -23 4 -23 4 2 14 18 8 31 7 45 0 20 -11 19 -12 -2 -15z"/>
<path d="M2490 621 c0 -49 14 -111 25 -111 8 0 17 -28 24 -76 l11 -76 -35 -57
-35 -56 61 -3 c34 -2 66 1 71 6 26 26 154 258 146 263 -6 4 0 22 14 45 56 89
57 84 -15 84 l-65 0 -28 -55 c-31 -59 -42 -55 -43 18 l-1 37 -65 0 c-57 0 -65
-2 -65 -19z"/>
<path d="M3320 578 c-8 -42 -8 -63 -1 -67 7 -5 6 -24 -3 -61 -8 -30 -17 -67
-20 -82 l-6 -28 63 0 64 0 18 81 c14 68 15 83 4 90 -23 15 11 30 53 23 40 -6
41 -5 53 67 l7 37 -110 1 -109 1 -13 -62z"/>
<path d="M3157 603 c-13 -23 -17 -87 -7 -93 9 -6 8 -25 -4 -78 -9 -39 -16 -76
-16 -81 0 -7 26 -11 63 -11 l63 0 13 63 c7 34 15 72 18 85 4 15 1 22 -10 22
-13 0 -14 6 -6 32 18 64 15 68 -50 68 -33 0 -62 -3 -64 -7z"/>
</g>
</svg>
