<?xml version="1.0" standalone="no"?>
<!DOCTYPE svg PUBLIC "-//W3C//DTD SVG 20010904//EN"
 "http://www.w3.org/TR/2001/REC-SVG-20010904/DTD/svg10.dtd">
<svg version="1.0" xmlns="http://www.w3.org/2000/svg"
 width="592.000000pt" height="584.000000pt" viewBox="0 0 592.000000 584.000000"
 preserveAspectRatio="xMidYMid meet">

<g transform="translate(0.000000,584.000000) scale(0.100000,-0.100000)"
fill="#000000" stroke="none">
<path d="M2470 5030 c-103 -6 -149 -13 -195 -30 -33 -12 -87 -30 -120 -39 -33
-9 -82 -29 -109 -45 -27 -17 -72 -36 -100 -43 -28 -7 -69 -26 -91 -41 -22 -16
-56 -35 -75 -42 -19 -8 -54 -29 -78 -47 -24 -18 -49 -33 -57 -33 -20 0 -332
-317 -356 -362 -7 -13 -25 -34 -40 -48 -15 -14 -30 -35 -34 -47 -3 -13 -24
-42 -45 -65 -22 -24 -42 -55 -45 -69 -3 -15 -19 -38 -36 -53 -17 -16 -34 -45
-41 -72 -7 -25 -25 -59 -39 -75 -19 -21 -31 -51 -39 -97 -7 -38 -22 -80 -35
-98 -28 -37 -41 -85 -50 -186 -4 -43 -11 -80 -16 -84 -5 -3 -7 -10 -4 -15 4
-5 2 -9 -4 -9 -6 0 -18 -26 -28 -57 -15 -49 -18 -98 -18 -318 l0 -261 29 -54
c16 -30 34 -76 41 -102 16 -57 54 -107 167 -218 67 -66 97 -88 131 -97 57 -16
171 -133 181 -187 4 -20 20 -51 35 -69 16 -17 37 -50 49 -72 11 -22 32 -51 46
-64 14 -14 26 -31 26 -38 0 -7 17 -32 39 -56 21 -23 46 -58 55 -77 9 -19 27
-50 41 -69 14 -19 30 -52 37 -75 10 -37 13 -202 6 -341 l-3 -50 48 -23 48 -23
35 22 c51 31 61 53 74 167 14 118 2 230 -30 286 -11 17 -28 61 -40 97 -11 37
-27 72 -35 79 -7 6 -27 35 -43 63 -17 29 -42 63 -56 76 -14 14 -26 30 -26 36
0 7 -18 33 -40 58 -22 25 -40 50 -40 57 0 6 -11 26 -25 44 -32 43 -25 61 33
81 26 9 74 29 107 45 33 15 74 31 90 34 17 4 46 22 65 41 19 18 51 41 70 51
42 22 120 105 145 153 9 19 30 52 46 74 20 27 29 52 29 77 0 21 5 62 11 91 6
30 13 65 15 79 3 14 7 120 10 235 4 235 5 245 16 239 4 -3 8 4 8 15 0 68 25
122 82 181 32 33 64 60 72 60 8 0 29 12 47 28 31 25 39 27 123 27 90 0 92 -1
163 -44 82 -50 83 -51 144 -146 l44 -69 5 -1186 5 -1185 31 -60 c17 -33 37
-82 43 -110 7 -27 24 -60 38 -74 13 -14 32 -39 40 -55 29 -55 116 -155 149
-171 18 -8 49 -31 69 -49 19 -19 51 -37 70 -40 20 -4 58 -21 87 -39 l51 -32
241 0 241 0 41 27 c23 15 66 34 96 43 30 8 65 26 77 39 13 14 43 37 67 52 45
28 120 115 163 187 13 23 32 50 42 61 11 11 24 38 30 61 17 67 20 74 32 87 37
40 41 76 44 453 2 204 5 379 8 390 6 29 133 91 225 109 74 15 75 16 146 90 96
101 107 128 102 230 -3 68 -9 88 -31 121 -15 22 -34 65 -43 96 -9 31 -28 71
-44 89 -15 18 -33 49 -39 70 -6 21 -27 57 -46 80 -19 23 -35 47 -35 54 0 7
-12 23 -26 37 -15 13 -36 40 -49 59 -12 19 -49 64 -81 98 -32 35 -64 74 -71
85 -17 30 -17 151 0 165 8 7 138 12 373 14 294 2 364 6 378 17 39 33 46 75 46
286 0 185 -2 205 -19 226 l-19 24 -279 0 c-350 1 -389 11 -418 105 -4 14 -19
40 -32 59 -14 18 -32 54 -39 79 -8 26 -28 60 -44 77 -16 16 -36 46 -44 66 -8
20 -26 50 -39 65 -13 16 -27 38 -31 50 -7 24 -167 183 -333 331 -23 21 -54 51
-70 67 -15 15 -48 38 -73 51 -25 13 -54 32 -64 44 -11 12 -39 26 -62 32 -23 6
-56 24 -73 39 -17 16 -48 32 -69 35 -49 9 -89 24 -132 51 -20 13 -73 30 -122
38 -48 9 -110 28 -138 43 -35 18 -75 28 -133 34 -98 9 -469 9 -657 -1z m419
-174 c105 -18 296 -44 373 -52 38 -3 70 -14 94 -31 21 -13 65 -31 99 -38 67
-14 97 -27 129 -56 11 -10 35 -22 53 -25 19 -4 57 -24 86 -45 28 -22 57 -39
65 -39 7 0 31 -18 54 -40 23 -22 49 -42 57 -45 9 -3 25 -18 36 -35 11 -16 25
-30 31 -30 20 0 257 -249 282 -295 7 -13 23 -36 36 -50 13 -14 32 -43 41 -63
10 -20 30 -50 45 -67 16 -16 33 -47 38 -67 6 -20 24 -54 40 -75 17 -21 34 -54
37 -74 9 -51 40 -98 73 -110 16 -6 124 -10 277 -10 266 1 320 -5 348 -40 20
-25 23 -98 5 -121 -32 -39 -55 -40 -1083 -39 -583 1 -1004 5 -1019 10 -31 12
-56 48 -56 81 0 27 -6 38 -63 124 -46 69 -84 106 -157 155 -67 46 -76 49 -159
61 -45 7 -105 6 -190 -2 -118 -11 -126 -13 -180 -50 -31 -21 -61 -38 -67 -38
-6 0 -24 -15 -40 -33 -16 -18 -38 -39 -50 -47 -25 -18 -44 -51 -44 -77 0 -11
-8 -28 -19 -39 -45 -49 -46 -55 -52 -394 -4 -284 -7 -329 -23 -357 -9 -18 -21
-35 -26 -38 -5 -3 -16 -27 -24 -53 -9 -27 -31 -62 -51 -81 -19 -18 -35 -36
-35 -41 0 -16 -150 -109 -187 -116 -21 -3 -53 -15 -71 -25 -19 -11 -38 -16
-44 -13 -6 4 -8 2 -5 -3 4 -6 -10 -13 -34 -17 -34 -5 -53 -1 -103 23 -33 16
-78 32 -98 35 -21 4 -50 17 -65 30 -15 13 -46 34 -68 48 -22 14 -47 38 -55 54
-8 16 -29 48 -48 72 -25 32 -38 61 -49 120 -21 103 -28 334 -13 436 7 45 16
124 20 176 7 81 14 105 44 164 21 40 36 83 36 103 0 31 23 90 39 103 12 9 41
78 41 97 0 10 18 42 40 72 22 29 40 58 40 65 0 7 15 30 33 52 18 21 45 58 61
82 16 23 32 42 37 42 5 0 15 13 24 29 19 38 165 191 181 191 7 0 33 19 58 43
97 90 124 111 152 121 17 6 45 23 64 38 19 14 54 31 76 37 23 6 58 24 78 40
23 18 63 35 109 46 39 9 84 25 98 35 26 19 95 35 191 44 32 4 81 15 110 25 29
11 64 22 78 24 57 10 188 6 269 -7z m1443 -1663 c10 -11 19 -48 23 -95 10
-107 44 -174 139 -271 42 -43 76 -82 76 -86 0 -5 14 -23 31 -40 17 -18 39 -52
49 -75 11 -23 30 -52 44 -65 14 -13 31 -40 37 -60 7 -20 23 -49 36 -65 14 -17
29 -41 35 -55 16 -42 27 -160 18 -192 -9 -31 -46 -68 -67 -69 -7 0 -13 -4 -13
-8 0 -18 -55 -33 -149 -42 -53 -5 -106 -10 -119 -10 -15 0 -35 -17 -63 -53
l-41 -53 1 -359 c1 -299 -1 -370 -14 -420 -9 -33 -20 -91 -25 -128 -6 -47 -15
-76 -29 -91 -11 -12 -29 -42 -41 -68 -22 -51 -138 -178 -162 -178 -8 0 -23 -9
-34 -21 -28 -31 -61 -45 -139 -58 -38 -7 -90 -21 -115 -31 -63 -26 -95 -31
-122 -21 -54 20 -128 40 -191 52 -50 8 -81 21 -112 44 -23 18 -51 36 -61 39
-26 8 -122 118 -139 160 -8 18 -26 48 -40 65 -19 22 -29 49 -36 95 -4 35 -14
77 -21 92 -10 23 -14 247 -16 1032 l-3 1002 25 25 25 25 599 0 c558 0 600 -1
614 -17z"/>
</g>
</svg>
